<svg width="179" height="70" viewBox="0 0 179 70" fill="none" xmlns="http://www.w3.org/2000/svg">
<rect width="179" height="70" rx="3" fill="#080325"/>
<rect x="12" y="11" width="38" height="4" rx="2" fill="white" fill-opacity="0.9"/>
<rect x="12" y="40" width="84" height="4" rx="2" fill="white" fill-opacity="0.9"/>
<rect x="12" y="31" width="91" height="4" rx="2" fill="white" fill-opacity="0.9"/>
<path d="M141.681 28.206C142.059 27.9544 142.525 27.7296 143.063 27.5556L143.063 31.6944C142.525 31.5204 142.059 31.2956 141.681 31.044C140.794 30.4523 140.625 29.9026 140.625 29.625C140.625 29.3474 140.794 28.7977 141.681 28.206Z" fill="white" fill-opacity="0.9"/>
<path d="M147.938 41.4444L147.938 37.3056C148.475 37.4796 148.941 37.7044 149.319 37.956C150.206 38.5477 150.375 39.0974 150.375 39.375C150.375 39.6526 150.206 40.2023 149.319 40.794C148.941 41.0456 148.475 41.2704 147.938 41.4444Z" fill="white" fill-opacity="0.9"/>
<path fill-rule="evenodd" clip-rule="evenodd" d="M145.5 54C156.27 54 165 45.2696 165 34.5C165 23.7304 156.27 15 145.5 15C134.73 15 126 23.7304 126 34.5C126 45.2696 134.73 54 145.5 54ZM147.938 22.3125C147.938 20.9663 146.846 19.875 145.5 19.875C144.154 19.875 143.062 20.9663 143.062 22.3125V22.5367C141.547 22.8213 140.146 23.3705 138.977 24.1497C137.218 25.3225 135.75 27.2102 135.75 29.625C135.75 32.0398 137.218 33.9275 138.977 35.1003C140.146 35.8795 141.547 36.4287 143.063 36.7133L143.063 41.445C142.109 41.1356 141.403 40.6715 141.007 40.215C140.125 39.1982 138.585 39.0892 137.568 39.9715C136.552 40.8537 136.443 42.3932 137.325 43.41C138.696 44.9901 140.77 46.0314 143.063 46.4624L143.062 46.6874C143.062 48.0336 144.154 49.125 145.5 49.125C146.846 49.125 147.937 48.0337 147.938 46.6876L147.938 46.4633C149.453 46.1787 150.854 45.6295 152.023 44.8503C153.782 43.6775 155.25 41.7898 155.25 39.375C155.25 36.9602 153.782 35.0724 152.023 33.8997C150.854 33.1205 149.453 32.5713 147.938 32.2867L147.938 27.555C148.891 27.8644 149.597 28.3285 149.993 28.785C150.875 29.8018 152.415 29.9108 153.432 29.0285C154.448 28.1463 154.558 26.6068 153.675 25.59C152.304 24.0099 150.23 22.9686 147.938 22.5376V22.3125Z" fill="white" fill-opacity="0.9"/>
</svg>
