<svg width="31" height="31" viewBox="0 0 31 31" fill="none" xmlns="http://www.w3.org/2000/svg">
<path fill-rule="evenodd" clip-rule="evenodd" d="M7.75 7.75V5.8125C7.75 2.60234 10.3523 0 13.5625 0H17.4375C20.6477 0 23.25 2.60234 23.25 5.8125V7.75H27.125C29.2651 7.75 31 9.4849 31 11.625V18.5434C26.1749 20.3335 20.9538 21.3124 15.5 21.3124C10.0462 21.3124 4.82508 20.3335 0 18.5433V11.625C0 9.4849 1.7349 7.75 3.875 7.75H7.75ZM11.625 5.8125C11.625 4.74245 12.4924 3.875 13.5625 3.875H17.4375C18.5076 3.875 19.375 4.74245 19.375 5.8125V7.75H11.625V5.8125ZM13.5625 15.5C13.5625 14.4299 14.4299 13.5625 15.5 13.5625H15.5194C16.5894 13.5625 17.4569 14.4299 17.4569 15.5C17.4569 16.5701 16.5894 17.4375 15.5194 17.4375H15.5C14.4299 17.4375 13.5625 16.5701 13.5625 15.5Z" fill="#080325"/>
<path d="M0 22.6538V27.125C0 29.2651 1.7349 31 3.875 31H27.125C29.2651 31 31 29.2651 31 27.125V22.6538C26.1315 24.2971 20.918 25.1874 15.5 25.1874C10.082 25.1874 4.86854 24.2971 0 22.6538Z" fill="#080325"/>
</svg>
