<svg width="40" height="40" viewBox="0 0 40 40" fill="none" xmlns="http://www.w3.org/2000/svg">
<g clip-path="url(#clip0_69_547)">
<path d="M19.5745 0.0850868C19.2584 0.19451 19.0517 0.425514 14.6748 5.10637C12.3283 7.61092 10.2007 9.89664 9.9332 10.1763C9.5563 10.5653 9.44688 10.7963 9.39824 11.234C9.33745 11.7447 9.36177 11.8176 9.76299 12.2188L10.1885 12.6444H11.4165H12.6444V16.0608C12.6444 18.1763 12.6931 19.5623 12.766 19.7082C12.9119 19.9757 13.5928 20.0365 13.8359 19.7933C13.9454 19.6839 13.9818 18.6018 13.9818 15.6717C13.9818 12.1337 13.9575 11.6839 13.7873 11.538C13.6536 11.4286 13.1065 11.3434 12.1581 11.307L10.7356 11.2462L13.4226 8.37688C14.8937 6.79634 16.9849 4.57141 18.0548 3.4164L20.0001 1.32521L20.5958 1.96959C20.9362 2.32217 21.532 2.96655 21.9332 3.40424C22.3466 3.84193 23.3922 4.96047 24.2554 5.89664C25.9697 7.74466 27.0639 8.91184 28.4499 10.3586L29.3375 11.307H27.9514C25.8359 11.307 26.0183 10.9058 26.0183 15.5745C26.0183 18.0304 26.0669 19.5501 26.1399 19.7082C26.3101 20.0121 26.9666 20.0243 27.1855 19.7203C27.3071 19.5623 27.3435 18.7477 27.3557 16.0729V12.6444H28.5229C30.1399 12.6444 30.6384 12.3161 30.6384 11.2462C30.6384 10.7477 30.7843 10.9179 24.9241 4.6322C22.7478 2.29785 20.8025 0.303932 20.5837 0.19451C20.1946 -1.90735e-05 19.9028 -0.0364933 19.5745 0.0850868Z" fill="#080325"/>
<path d="M16.8511 13.5684C16.6809 13.7264 16.6566 14.1763 16.6566 16.6079C16.6566 18.3465 16.7052 19.5623 16.7782 19.7082C16.8633 19.8663 17.0335 19.9392 17.3253 19.9392C17.6171 19.9392 17.7873 19.8663 17.8724 19.7082C17.9454 19.5623 17.994 18.3465 17.994 16.6079C17.994 13.5198 17.9697 13.3739 17.3253 13.3739C17.1673 13.3739 16.9484 13.459 16.8511 13.5684Z" fill="#080325"/>
<path d="M22.2006 13.5684C22.0304 13.7264 22.0061 14.1763 22.0061 16.6079C22.0061 18.3465 22.0547 19.5623 22.1277 19.7082C22.2128 19.8663 22.383 19.9392 22.6748 19.9392C22.9666 19.9392 23.1368 19.8663 23.2219 19.7082C23.2949 19.5623 23.3435 18.3465 23.3435 16.6079C23.3435 13.5198 23.3192 13.3739 22.6748 13.3739C22.5167 13.3739 22.2979 13.459 22.2006 13.5684Z" fill="#080325"/>
<path d="M6.01824 21.459C5.42249 21.6657 4.92401 22.2128 4.7538 22.8207C4.55927 23.4894 4.57143 37.994 4.7538 38.5532C4.93617 39.076 5.42249 39.6231 5.92097 39.8298C6.24924 39.9757 8.64438 40 19.9878 40C29.3739 40 33.7751 39.9636 34.0061 39.8663C34.4924 39.6839 34.8936 39.2827 35.1489 38.7234C35.3556 38.2614 35.3799 37.7751 35.3799 30.7599C35.3799 25.7022 35.3313 23.1246 35.2462 22.7964C35.076 22.1885 34.4681 21.5806 33.8602 21.4104C33.5198 21.3131 29.3374 21.2766 19.9392 21.2766C8.68085 21.2888 6.43161 21.3131 6.01824 21.459ZM15.1368 23.2705L14.4073 23.9271L12.3647 23.9757C10.5046 24.0122 10.2979 24.0365 10.1398 24.2432C10.0426 24.3769 9.96961 24.6444 9.96961 24.8268C9.96961 25.5198 9.22796 26.4316 8.55927 26.5654C7.19757 26.845 7.29483 26.5289 7.29483 30.614C7.29483 34.456 7.33131 34.6505 8 34.6505C8.51064 34.6626 9.30091 35.0639 9.59271 35.4772C9.7386 35.6839 9.89666 36.0973 9.95745 36.4012C10.1277 37.3374 10.1033 37.3253 12.3891 37.3253L14.4073 37.3374L15.1125 37.994L15.8176 38.6626H11.1246C6.60183 38.6626 6.43161 38.6505 6.20061 38.4195C5.95745 38.1763 5.95745 38.0183 5.95745 30.6991V23.2098L6.2614 22.918L6.55319 22.614H11.2097H15.8663L15.1368 23.2705ZM21.7994 23.0031C23.7568 23.6353 25.459 25.4833 26.2128 27.7933C26.541 28.8025 26.5654 29.0091 26.5654 30.6991C26.5532 32.3526 26.5289 32.6201 26.2249 33.4955C25.7751 34.8329 25.1307 35.9028 24.1945 36.8389C22.9179 38.1155 21.2766 38.7599 19.6353 38.6262C16.7295 38.3952 14.4559 36.2067 13.6049 32.8268C13.228 31.3192 13.3131 29.1915 13.8237 27.6961C15.1246 23.8906 18.4924 21.9088 21.7994 23.0031ZM33.7386 22.918L34.0426 23.2098V30.6991C34.0426 38.0183 34.0426 38.1763 33.7994 38.4195C33.5684 38.6505 33.3982 38.6626 28.8754 38.6626H24.1824L24.8875 37.994L25.5927 37.3374L27.6109 37.3253C29.8967 37.3253 29.8723 37.3374 30.0426 36.4012C30.1033 36.0973 30.2614 35.6839 30.4073 35.4772C30.6991 35.0639 31.4894 34.6626 32 34.6505C32.6687 34.6505 32.7052 34.456 32.7052 30.614C32.7052 26.8329 32.7052 26.8207 32.0243 26.687C31.8663 26.6505 31.5988 26.6019 31.4407 26.5654C30.772 26.4316 30.0304 25.5198 30.0304 24.8268C30.0304 24.6444 29.9574 24.3769 29.8602 24.2432C29.7021 24.0365 29.4954 24.0122 27.6353 23.9757L25.5927 23.9271L24.8632 23.2705L24.1337 22.614H28.7903H33.4468L33.7386 22.918ZM13.3374 25.4347C12.3769 27.5745 12.0365 28.9362 12.0365 30.7113C12.0365 32.1702 12.304 33.4712 12.8389 34.7113C13.0821 35.2462 13.3009 35.7569 13.3374 35.8298C13.386 35.9514 13.1429 35.9879 12.3526 35.9879H11.3192L11.0517 35.38C10.7356 34.6383 9.79939 33.7508 9.1307 33.5441L8.63222 33.3982L8.65654 30.6626L8.69301 27.9271L9.19149 27.7569C10.1033 27.4529 10.845 26.6262 11.2219 25.4955C11.2827 25.3253 11.4529 25.2888 12.3526 25.2888C13.1429 25.2888 13.386 25.3253 13.3374 25.4347ZM28.8997 25.8481C29.2036 26.7477 30.1277 27.5867 31.1611 27.8906C31.3435 27.9514 31.3678 28.1946 31.3678 30.6748V33.3982L30.8693 33.5441C30.2006 33.7508 29.2644 34.6383 28.9483 35.38L28.6809 35.9879H27.6596C27.0881 35.9879 26.6261 35.9636 26.6261 35.9271C26.6261 35.8906 26.7356 35.6474 26.8693 35.38C27.5866 33.9575 27.9635 32.4012 27.9635 30.7356C27.9635 28.9362 27.6353 27.611 26.6626 25.4347C26.614 25.3131 26.8328 25.2888 27.6596 25.3131L28.7295 25.3496L28.8997 25.8481Z" fill="#080325"/>
<path d="M19.8176 24.0365C19.5015 24.1459 19.3313 24.462 19.3313 24.9362C19.3313 25.3617 19.3069 25.386 18.8814 25.4711C17.2401 25.7629 16.0486 26.9787 16.0486 28.3283C16.0486 29.1064 16.3647 29.7508 17.0334 30.3222C17.544 30.7599 18.6382 31.2462 19.0881 31.2462C19.3191 31.2462 19.3313 31.3435 19.3313 32.8876C19.3313 34.7356 19.3434 34.7234 18.4194 34.2979C17.7993 34.0183 17.544 33.7143 17.3495 33.0699C17.1671 32.4255 16.9118 32.2432 16.4498 32.4134C16.1337 32.5228 16.1094 32.5714 16.1094 33.2037C16.1094 33.7508 16.1823 33.9818 16.462 34.3952C16.9118 35.0395 17.6656 35.538 18.6018 35.7933C19.3313 36 19.3313 36 19.3313 36.462C19.3313 36.7538 19.4164 36.997 19.5501 37.1186C20.0607 37.5806 20.6686 37.2037 20.6686 36.4377C20.6686 36 20.6808 36 21.3981 35.7933C22.3343 35.538 23.0881 35.0395 23.5379 34.383C23.8419 33.9453 23.8905 33.7751 23.8905 33.0091C23.8905 32.2553 23.8419 32.073 23.5501 31.6231C23.1367 31.0031 22.2978 30.4438 21.3738 30.1885L20.6686 29.9939V28.3648C20.6686 27.149 20.7051 26.7477 20.8267 26.7477C20.8996 26.7477 21.2522 26.8815 21.5805 27.0395C22.2249 27.3313 22.5167 27.6596 22.6626 28.2675C22.7841 28.766 22.9544 28.9362 23.3313 28.9362C23.7811 28.9362 23.9513 28.7295 23.9513 28.1824C23.9513 26.9787 22.6747 25.7508 21.1307 25.4711C20.693 25.386 20.6686 25.3617 20.6686 24.9119C20.6686 24.5958 20.5835 24.3526 20.4255 24.1945C20.1702 23.9392 20.1215 23.9271 19.8176 24.0365ZM19.3313 28.3283C19.3313 29.5076 19.2948 29.9088 19.1854 29.9088C18.8693 29.9088 17.775 29.3131 17.5805 29.0456C17.082 28.3283 17.4711 27.4529 18.5045 26.9909C19.3556 26.6018 19.3313 26.5775 19.3313 28.3283ZM22.1398 32.0973C22.5167 32.4499 22.6139 32.6322 22.6139 32.9727C22.6139 33.5198 22.237 34.0061 21.5927 34.2979C20.6565 34.7234 20.6686 34.7356 20.6686 32.9605V31.3921L21.1671 31.5259C21.4589 31.5988 21.8723 31.842 22.1398 32.0973Z" fill="#080325"/>
</g>
<defs>
<clipPath id="clip0_69_547">
<rect width="40" height="40" fill="white"/>
</clipPath>
</defs>
</svg>
