<svg width="23" height="20" viewBox="0 0 23 20" fill="none" xmlns="http://www.w3.org/2000/svg">
<path fill-rule="evenodd" clip-rule="evenodd" d="M0 1.66667C0 0.746192 0.732905 0 1.63699 0H21.2809C22.185 0 22.9179 0.746192 22.9179 1.66667C22.9179 2.58714 22.185 3.33333 21.2809 3.33333H1.63699C0.732905 3.33333 0 2.58714 0 1.66667Z" fill="#080325"/>
<path fill-rule="evenodd" clip-rule="evenodd" d="M0 10C0 9.07952 0.732905 8.33333 1.63699 8.33333H21.2809C22.185 8.33333 22.9179 9.07952 22.9179 10C22.9179 10.9205 22.185 11.6667 21.2809 11.6667H1.63699C0.732905 11.6667 0 10.9205 0 10Z" fill="#080325"/>
<path fill-rule="evenodd" clip-rule="evenodd" d="M0 18.3333C0 17.4129 0.732905 16.6667 1.63699 16.6667H21.2809C22.185 16.6667 22.9179 17.4129 22.9179 18.3333C22.9179 19.2538 22.185 20 21.2809 20H1.63699C0.732905 20 0 19.2538 0 18.3333Z" fill="#080325"/>
</svg>
