<svg width="32" height="40" viewBox="0 0 32 40" fill="none" xmlns="http://www.w3.org/2000/svg">
<path d="M15.5744 39.5994C15.2583 39.4899 15.0516 39.2589 10.6747 34.5781C8.32821 32.0735 6.20055 29.7878 5.93308 29.5082C5.55618 29.1191 5.44676 28.8881 5.39812 28.4504C5.33733 27.9398 5.36165 27.8668 5.76286 27.4656L6.1884 27.0401H7.41636H8.64432V23.6237C8.64432 21.5082 8.69296 20.1221 8.7659 19.9763C8.9118 19.7088 9.59265 19.648 9.83581 19.8911C9.94524 20.0006 9.98171 21.0826 9.98171 24.0127C9.98171 27.5507 9.95739 28.0006 9.78718 28.1465C9.65344 28.2559 9.10633 28.341 8.158 28.3775L6.73551 28.4383L9.42244 31.3076C10.8936 32.8881 12.9847 35.113 14.0547 36.268L15.9999 38.3592L16.5957 37.7149C16.9361 37.3623 17.5319 36.7179 17.9331 36.2802C18.3465 35.8425 19.392 34.724 20.2553 33.7878C21.9696 31.9398 23.0638 30.7726 24.4498 29.3258L25.3373 28.3775H23.9513C21.8358 28.3775 22.0182 28.7787 22.0182 24.11C22.0182 21.6541 22.0668 20.1343 22.1398 19.9763C22.31 19.6723 22.9665 19.6601 23.1854 19.9641C23.3069 20.1221 23.3434 20.9367 23.3556 23.6115V27.0401H24.5227C26.1398 27.0401 26.6382 27.3683 26.6382 28.4383C26.6382 28.9367 26.7841 28.7665 20.924 35.0522C18.7477 37.3866 16.8024 39.3805 16.5835 39.4899C16.1945 39.6845 15.9027 39.7209 15.5744 39.5994Z" fill="#080325"/>
<path d="M12.851 26.1161C12.6808 25.958 12.6565 25.5082 12.6565 23.0766C12.6565 21.3379 12.7051 20.1221 12.7781 19.9762C12.8632 19.8182 13.0334 19.7452 13.3252 19.7452C13.617 19.7452 13.7872 19.8182 13.8723 19.9762C13.9452 20.1221 13.9939 21.3379 13.9939 23.0766C13.9939 26.1647 13.9695 26.3106 13.3252 26.3106C13.1671 26.3106 12.9483 26.2255 12.851 26.1161Z" fill="#080325"/>
<path d="M18.2005 26.1161C18.0303 25.958 18.006 25.5082 18.006 23.0766C18.006 21.3379 18.0546 20.1221 18.1276 19.9762C18.2127 19.8182 18.3829 19.7452 18.6747 19.7452C18.9665 19.7452 19.1367 19.8182 19.2218 19.9762C19.2948 20.1221 19.3434 21.3379 19.3434 23.0766C19.3434 26.1647 19.3191 26.3106 18.6747 26.3106C18.5166 26.3106 18.2978 26.2255 18.2005 26.1161Z" fill="#080325"/>
<path d="M2.01812 0.197325C1.42237 0.404013 0.923892 0.951124 0.753679 1.55903C0.55915 2.22772 0.571308 16.7323 0.753679 17.2916C0.93605 17.8143 1.42237 18.3615 1.92085 18.5681C2.24912 18.714 4.64426 18.7384 15.9877 18.7384C25.3737 18.7384 29.775 18.7019 30.006 18.6046C30.4923 18.4223 30.8935 18.021 31.1488 17.4618C31.3555 16.9998 31.3798 16.5134 31.3798 9.49824C31.3798 4.44049 31.3312 1.86298 31.2461 1.53471C31.0759 0.926809 30.468 0.318905 29.8601 0.148691C29.5196 0.0514278 25.3373 0.0149536 15.9391 0.0149536C4.68073 0.027113 2.43149 0.0514278 2.01812 0.197325ZM11.1367 2.00887L10.4072 2.66541L8.36462 2.71404C6.50444 2.75052 6.29775 2.77483 6.1397 2.98152C6.04243 3.11526 5.96948 3.38274 5.96948 3.56511C5.96948 4.25812 5.22784 5.16997 4.55915 5.30371C3.19745 5.58334 3.29471 5.26723 3.29471 9.35234C3.29471 13.1943 3.33119 13.3888 3.99988 13.3888C4.51052 13.401 5.30079 13.8022 5.59258 14.2156C5.73848 14.4223 5.89654 14.8356 5.95733 15.1396C6.12754 16.0757 6.10322 16.0636 8.38894 16.0636L10.4072 16.0757L11.1123 16.7323L11.8175 17.401H7.1245C2.6017 17.401 2.43149 17.3888 2.20049 17.1578C1.95733 16.9147 1.95733 16.7566 1.95733 9.43745V1.94808L2.26128 1.65629L2.55307 1.35234H7.20961H11.8661L11.1367 2.00887ZM17.7993 1.7414C19.7567 2.37362 21.4588 4.22164 22.2126 6.53167C22.5409 7.54079 22.5652 7.74748 22.5652 9.43745C22.5531 11.0909 22.5288 11.3584 22.2248 12.2338C21.775 13.5712 21.1306 14.6411 20.1944 15.5773C18.9178 16.8539 17.2765 17.4982 15.6351 17.3645C12.7294 17.1335 10.4558 14.945 9.60474 11.5651C9.22784 10.0575 9.31295 7.92985 9.82359 6.43441C11.1245 2.62894 14.4923 0.647173 17.7993 1.7414ZM29.7385 1.65629L30.0424 1.94808V9.43745C30.0424 16.7566 30.0424 16.9147 29.7993 17.1578C29.5683 17.3888 29.3981 17.401 24.8753 17.401H20.1823L20.8874 16.7323L21.5926 16.0757L23.6108 16.0636C25.8965 16.0636 25.8722 16.0757 26.0424 15.1396C26.1032 14.8356 26.2613 14.4223 26.4072 14.2156C26.699 13.8022 27.4892 13.401 27.9999 13.3888C28.6686 13.3888 28.705 13.1943 28.705 9.35234C28.705 5.57119 28.705 5.55903 28.0242 5.42529C27.8661 5.38882 27.5987 5.34018 27.4406 5.30371C26.7719 5.16997 26.0303 4.25812 26.0303 3.56511C26.0303 3.38274 25.9573 3.11526 25.8601 2.98152C25.702 2.77483 25.4953 2.75052 23.6351 2.71404L21.5926 2.66541L20.8631 2.00887L20.1336 1.35234H24.7902H29.4467L29.7385 1.65629ZM9.33727 4.17301C8.37678 6.31283 8.03635 7.67453 8.03635 9.44961C8.03635 10.9086 8.30383 12.2095 8.83879 13.4496C9.08195 13.9846 9.30079 14.4952 9.33727 14.5681C9.3859 14.6897 9.14274 14.7262 8.35246 14.7262H7.31903L7.05155 14.1183C6.73544 13.3767 5.79927 12.4891 5.13058 12.2824L4.6321 12.1365L4.65641 9.40097L4.69289 6.66541L5.19137 6.4952C6.10322 6.19125 6.84486 5.3645 7.22176 4.2338C7.28255 4.06359 7.45277 4.02711 8.35246 4.02711C9.14274 4.02711 9.3859 4.06359 9.33727 4.17301ZM24.8996 4.58638C25.2035 5.48608 26.1275 6.32499 27.161 6.62894C27.3433 6.68973 27.3677 6.93289 27.3677 9.41313V12.1365L26.8692 12.2824C26.2005 12.4891 25.2643 13.3767 24.9482 14.1183L24.6807 14.7262H23.6595C23.088 14.7262 22.626 14.7019 22.626 14.6654C22.626 14.6289 22.7354 14.3858 22.8692 14.1183C23.5865 12.6958 23.9634 11.1396 23.9634 9.47392C23.9634 7.67453 23.6351 6.3493 22.6625 4.17301C22.6139 4.05143 22.8327 4.02711 23.6595 4.05143L24.7294 4.0879L24.8996 4.58638Z" fill="#080325"/>
<path d="M15.8175 2.77483C15.5014 2.88426 15.3312 3.20037 15.3312 3.67453C15.3312 4.10006 15.3069 4.12438 14.8814 4.20948C13.24 4.50128 12.0485 5.71708 12.0485 7.06663C12.0485 7.84474 12.3646 8.48912 13.0333 9.06055C13.544 9.49824 14.6382 9.98456 15.088 9.98456C15.319 9.98456 15.3312 10.0818 15.3312 11.6259C15.3312 13.4739 15.3434 13.4618 14.4193 13.0362C13.7993 12.7566 13.544 12.4526 13.3494 11.8083C13.1671 11.1639 12.9117 10.9815 12.4497 11.1517C12.1336 11.2612 12.1093 11.3098 12.1093 11.942C12.1093 12.4891 12.1823 12.7201 12.4619 13.1335C12.9117 13.7779 13.6655 14.2764 14.6017 14.5317C15.3312 14.7384 15.3312 14.7384 15.3312 15.2004C15.3312 15.4922 15.4163 15.7353 15.55 15.8569C16.0607 16.3189 16.6686 15.942 16.6686 15.1761C16.6686 14.7384 16.6807 14.7384 17.3981 14.5317C18.3342 14.2764 19.088 13.7779 19.5379 13.1213C19.8418 12.6836 19.8905 12.5134 19.8905 11.7475C19.8905 10.9937 19.8418 10.8113 19.55 10.3615C19.1367 9.7414 18.2978 9.18213 17.3738 8.92681L16.6686 8.73228V7.1031C16.6686 5.8873 16.7051 5.48608 16.8266 5.48608C16.8996 5.48608 17.2522 5.61982 17.5804 5.77787C18.2248 6.06967 18.5166 6.39793 18.6625 7.00584C18.7841 7.50432 18.9543 7.67453 19.3312 7.67453C19.781 7.67453 19.9513 7.46784 19.9513 6.92073C19.9513 5.71708 18.6747 4.48912 17.1306 4.20948C16.6929 4.12438 16.6686 4.10006 16.6686 3.65021C16.6686 3.3341 16.5835 3.09094 16.4254 2.93289C16.1701 2.67757 16.1215 2.66541 15.8175 2.77483ZM15.3312 7.06663C15.3312 8.24596 15.2947 8.64717 15.1853 8.64717C14.8692 8.64717 13.775 8.05143 13.5804 7.78395C13.082 7.06663 13.471 6.19125 14.5045 5.72924C15.3555 5.34018 15.3312 5.31587 15.3312 7.06663ZM18.1397 10.8356C18.5166 11.1882 18.6139 11.3706 18.6139 11.711C18.6139 12.2581 18.237 12.7444 17.5926 13.0362C16.6564 13.4618 16.6686 13.4739 16.6686 11.6988V10.1305L17.1671 10.2642C17.4589 10.3371 17.8722 10.5803 18.1397 10.8356Z" fill="#080325"/>
</svg>
